<svg width="45" height="45" viewBox="0 0 45 45" fill="none" xmlns="http://www.w3.org/2000/svg">
<g clip-path="url(#clip0_310_3430)">
<path d="M41.1787 11.7148V33.2842L22.5 44.0684L3.82129 33.2842V11.7148L22.5 0.930664L41.1787 11.7148Z" fill="#FFF1C9" stroke="#FFBB58" stroke-width="1.6129"/>
<ellipse cx="22.507" cy="29.3329" rx="4.27184" ry="7.44128" fill="#FFBB58"/>
<ellipse cx="22.507" cy="30.4354" rx="4.27184" ry="3.58284" fill="black"/>
<ellipse cx="22.507" cy="29.0574" rx="4.27184" ry="3.58284" fill="#FFBB58"/>
<ellipse cx="22.507" cy="27.6793" rx="4.27184" ry="3.58284" fill="black"/>
<ellipse cx="22.507" cy="26.7146" rx="3.99624" ry="3.16943" fill="#FFBB58"/>
<circle cx="22.507" cy="22.0294" r="4.27184" fill="#FFD35B"/>
<path d="M35.4492 21.2348C34.6085 21.8642 33.54 22.2366 32.4792 22.4512C31.4199 22.6655 30.3789 22.7201 29.6014 22.7209C29.213 22.7213 28.8903 22.7084 28.6658 22.6953C28.5542 22.6888 28.4667 22.6824 28.4072 22.6775C28.3775 22.6751 28.3544 22.6731 28.3392 22.6717C28.3316 22.671 28.3253 22.6701 28.3216 22.6697C28.32 22.6695 28.3184 22.6701 28.3176 22.6701L28.3174 22.6691L28.3164 22.6694L28.3092 22.6689L19.2279 22.2569L34.4818 16.8477C35.1369 16.6154 35.8311 16.6833 36.3348 16.9817C36.8348 17.2779 37.1432 17.7966 37.0564 18.4805C36.8982 19.7281 36.285 20.6089 35.4492 21.2348Z" fill="#D9D9D9" fill-opacity="0.75" stroke="#D9D9D9" stroke-width="0.275603"/>
<path d="M34.0152 24.2983C33.1971 24.6694 32.22 24.7722 31.2716 24.7398C30.3251 24.7074 29.4182 24.5411 28.7465 24.3817C28.411 24.3021 28.1342 24.2245 27.9424 24.1669C27.8466 24.1382 27.7719 24.1142 27.7213 24.0977C27.696 24.0895 27.6767 24.0828 27.6639 24.0785C27.6575 24.0763 27.6529 24.0742 27.6497 24.0731C27.6481 24.0726 27.6465 24.0728 27.6457 24.0726L27.6457 24.0716L27.6447 24.0717L27.6377 24.0695L19.9436 21.8661L33.8262 20.3526C34.4305 20.2868 35.0209 20.4834 35.4115 20.8368C35.7985 21.1872 35.9866 21.6869 35.8122 22.2494C35.4878 23.2956 34.8276 23.9297 34.0152 24.2983Z" fill="#D9D9D9" fill-opacity="0.75" stroke="#D9D9D9" stroke-width="0.275603"/>
<path d="M9.72101 21.2348C10.5617 21.8642 11.6302 22.2366 12.691 22.4512C13.7503 22.6655 14.7912 22.7201 15.5687 22.7209C15.9572 22.7213 16.2799 22.7084 16.5043 22.6953C16.616 22.6888 16.7035 22.6824 16.7629 22.6775C16.7926 22.6751 16.8158 22.6731 16.831 22.6717C16.8385 22.671 16.8449 22.6701 16.8486 22.6697C16.8502 22.6695 16.8517 22.6701 16.8525 22.6701L16.8528 22.6691L16.8537 22.6694L16.8609 22.6689L25.9422 22.2569L10.6884 16.8477C10.0332 16.6154 9.33911 16.6833 8.8354 16.9817C8.33541 17.2779 8.02697 17.7966 8.11372 18.4805C8.272 19.7281 8.88515 20.6089 9.72101 21.2348Z" fill="#D9D9D9" fill-opacity="0.75" stroke="#D9D9D9" stroke-width="0.275603"/>
<path d="M10.769 24.2983C11.5871 24.6694 12.5642 24.7722 13.5126 24.7398C14.459 24.7074 15.366 24.5411 16.0376 24.3817C16.3732 24.3021 16.6499 24.2245 16.8418 24.1669C16.9376 24.1382 17.0123 24.1142 17.0629 24.0977C17.0882 24.0895 17.1075 24.0828 17.1203 24.0785C17.1267 24.0763 17.1313 24.0742 17.1345 24.0731C17.136 24.0726 17.1377 24.0728 17.1384 24.0726L17.1385 24.0716L17.1395 24.0717L17.1465 24.0695L24.8406 21.8661L10.958 20.3526C10.3537 20.2868 9.76327 20.4834 9.37272 20.8368C8.98564 21.1872 8.79762 21.6869 8.97199 22.2494C9.29639 23.2956 9.9566 23.9297 10.769 24.2983Z" fill="#D9D9D9" fill-opacity="0.75" stroke="#D9D9D9" stroke-width="0.275603"/>
<ellipse cx="22.6448" cy="15.277" rx="4.13404" ry="2.75603" fill="#FFD35B"/>
<circle cx="22.507" cy="20.3758" r="4.27184" fill="#EAAC52"/>
<ellipse cx="19.3789" cy="15.1394" rx="0.868149" ry="1.24021" fill="black"/>
<ellipse cx="25.9934" cy="15.1394" rx="0.868149" ry="1.24021" fill="black"/>
<path d="M21.4207 12.867L21.1101 11.724C21.0361 11.4516 20.8282 11.2359 20.5588 11.1517L16.5816 9.90878" stroke="black" stroke-width="0.275603" stroke-linecap="round"/>
<path d="M24.0654 12.8731L24.376 11.7301C24.45 11.4577 24.6579 11.242 24.9273 11.1578L28.9045 9.91488" stroke="black" stroke-width="0.275603" stroke-linecap="round"/>
</g>
<defs>
<clipPath id="clip0_310_3430">
<rect width="45" height="45" fill="white"/>
</clipPath>
</defs>
</svg>
