<svg width="1430" height="820" viewBox="0 0 1430 820" fill="none" xmlns="http://www.w3.org/2000/svg">
<rect width="1429.16" height="817" transform="translate(0 1.49268)" fill="#FFE291" fill-opacity="0.42"/>
<path d="M121.259 98.8198L120.936 99.0063L64.959 131.325L64.6357 131.511L64.3125 131.325L8.33594 99.0063L8.01367 98.8198V33.438L8.33594 33.2505L64.3125 0.933105L64.6357 0.746582L64.959 0.933105L120.936 33.2505L121.259 33.438V98.8198Z" stroke="#FFE08B" stroke-width="1.29272"/>
<path d="M233.726 98.8198L233.402 99.0063L177.426 131.325L177.103 131.511L176.779 131.325L120.803 99.0063L120.48 98.8198V33.438L120.803 33.2505L176.779 0.933105L177.103 0.746582L177.426 0.933105L233.402 33.2505L233.726 33.438V98.8198Z" stroke="#FFE08B" stroke-width="1.29272"/>
<path d="M347.485 98.8198L347.162 99.0063L291.185 131.325L290.862 131.511L290.539 131.325L234.562 99.0063L234.24 98.8198V33.438L234.562 33.2505L290.539 0.933105L290.862 0.746582L291.185 0.933105L347.162 33.2505L347.485 33.438V98.8198Z" stroke="#FFE08B" stroke-width="1.29272"/>
<path d="M178.139 197.067L177.815 197.253L121.839 229.572L121.516 229.758L121.192 229.572L65.2158 197.253L64.8936 197.067V131.685L65.2158 131.497L121.192 99.1799L121.516 98.9934L121.839 99.1799L177.815 131.497L178.139 131.685V197.067Z" stroke="#FFE08B" stroke-width="1.29272"/>
<path d="M290.605 197.067L290.282 197.253L234.305 229.572L233.982 229.758L233.659 229.572L177.682 197.253L177.36 197.067V131.685L177.682 131.497L233.659 99.1799L233.982 98.9934L234.305 99.1799L290.282 131.497L290.605 131.685V197.067Z" stroke="#FFE08B" stroke-width="1.29272"/>
<path d="M404.365 197.067L404.042 197.253L348.065 229.572L347.742 229.758L347.418 229.572L291.442 197.253L291.12 197.067V131.685L291.442 131.497L347.418 99.1799L347.742 98.9934L348.065 99.1799L404.042 131.497L404.365 131.685V197.067Z" stroke="#FFE08B" stroke-width="1.29272"/>
<path d="M459.952 98.8198L459.628 99.0063L403.652 131.325L403.329 131.511L403.005 131.325L347.029 99.0063L346.707 98.8198V33.438L347.029 33.2505L403.005 0.933105L403.329 0.746582L403.652 0.933105L459.628 33.2505L459.952 33.438V98.8198Z" stroke="#FFE08B" stroke-width="1.29272"/>
<path d="M572.418 98.8198L572.095 99.0063L516.119 131.325L515.795 131.511L515.472 131.325L459.496 99.0063L459.173 98.8198V33.438L459.496 33.2505L515.472 0.933105L515.795 0.746582L516.119 0.933105L572.095 33.2505L572.418 33.438V98.8198Z" stroke="#FFE08B" stroke-width="1.29272"/>
<path d="M686.178 98.8198L685.855 99.0063L629.878 131.325L629.555 131.511L629.232 131.325L573.255 99.0063L572.933 98.8198V33.438L573.255 33.2505L629.232 0.933105L629.555 0.746582L629.878 0.933105L685.855 33.2505L686.178 33.438V98.8198Z" stroke="#FFE08B" stroke-width="1.29272"/>
<path d="M516.832 197.067L516.508 197.253L460.532 229.572L460.208 229.758L459.885 229.572L403.909 197.253L403.586 197.067V131.685L403.909 131.497L459.885 99.1799L460.208 98.9934L460.532 99.1799L516.508 131.497L516.832 131.685V197.067Z" stroke="#FFE08B" stroke-width="1.29272"/>
<path d="M629.298 197.067L628.975 197.253L572.999 229.572L572.675 229.758L572.352 229.572L516.375 197.253L516.053 197.067V131.685L516.375 131.497L572.352 99.1799L572.675 98.9934L572.999 99.1799L628.975 131.497L629.298 131.685V197.067Z" stroke="#FFE08B" stroke-width="1.29272"/>
<path d="M743.058 197.067L742.735 197.253L686.758 229.572L686.435 229.758L686.112 229.572L630.135 197.253L629.813 197.067V131.685L630.135 131.497L686.112 99.1799L686.435 98.9934L686.758 99.1799L742.735 131.497L743.058 131.685V197.067Z" stroke="#FFE08B" stroke-width="1.29272"/>
<path d="M121.259 295.313L120.936 295.5L64.959 327.818L64.6357 328.005L64.3125 327.818L8.33594 295.5L8.01367 295.313V229.932L8.33594 229.744L64.3125 197.427L64.6357 197.24L64.959 197.427L120.936 229.744L121.259 229.932V295.313Z" stroke="#FFE08B" stroke-width="1.29272"/>
<path d="M233.726 295.313L233.402 295.5L177.426 327.818L177.103 328.005L176.779 327.818L120.803 295.5L120.48 295.313V229.932L120.803 229.744L176.779 197.427L177.103 197.24L177.426 197.427L233.402 229.744L233.726 229.932V295.313Z" stroke="#FFE08B" stroke-width="1.29272"/>
<path d="M347.485 295.313L347.162 295.5L291.185 327.818L290.862 328.005L290.539 327.818L234.562 295.5L234.24 295.313V229.932L234.562 229.744L290.539 197.427L290.862 197.24L291.185 197.427L347.162 229.744L347.485 229.932V295.313Z" stroke="#FFE08B" stroke-width="1.29272"/>
<path d="M178.139 393.56L177.815 393.747L121.839 426.065L121.516 426.252L121.192 426.065L65.2158 393.747L64.8936 393.56V328.178L65.2158 327.991L121.192 295.674L121.516 295.487L121.839 295.674L177.815 327.991L178.139 328.178V393.56Z" stroke="#FFE08B" stroke-width="1.29272"/>
<path d="M290.605 393.56L290.282 393.747L234.305 426.065L233.982 426.252L233.659 426.065L177.682 393.747L177.36 393.56V328.178L177.682 327.991L233.659 295.674L233.982 295.487L234.305 295.674L290.282 327.991L290.605 328.178V393.56Z" stroke="#FFE08B" stroke-width="1.29272"/>
<path d="M404.365 393.56L404.042 393.747L348.065 426.065L347.742 426.252L347.418 426.065L291.442 393.747L291.12 393.56V328.178L291.442 327.991L347.418 295.674L347.742 295.487L348.065 295.674L404.042 327.991L404.365 328.178V393.56Z" stroke="#FFE08B" stroke-width="1.29272"/>
<path d="M459.952 295.313L459.628 295.5L403.652 327.818L403.329 328.005L403.005 327.818L347.029 295.5L346.707 295.313V229.932L347.029 229.744L403.005 197.427L403.329 197.24L403.652 197.427L459.628 229.744L459.952 229.932V295.313Z" stroke="#FFE08B" stroke-width="1.29272"/>
<path d="M572.418 295.313L572.095 295.5L516.119 327.818L515.795 328.005L515.472 327.818L459.496 295.5L459.173 295.313V229.932L459.496 229.744L515.472 197.427L515.795 197.24L516.119 197.427L572.095 229.744L572.418 229.932V295.313Z" stroke="#FFE08B" stroke-width="1.29272"/>
<path d="M686.178 295.313L685.855 295.5L629.878 327.818L629.555 328.005L629.232 327.818L573.255 295.5L572.933 295.313V229.932L573.255 229.744L629.232 197.427L629.555 197.24L629.878 197.427L685.855 229.744L686.178 229.932V295.313Z" stroke="#FFE08B" stroke-width="1.29272"/>
<path d="M516.832 393.56L516.508 393.747L460.532 426.065L460.208 426.252L459.885 426.065L403.909 393.747L403.586 393.56V328.178L403.909 327.991L459.885 295.674L460.208 295.487L460.532 295.674L516.508 327.991L516.832 328.178V393.56Z" stroke="#FFE08B" stroke-width="1.29272"/>
<path d="M629.298 393.56L628.975 393.747L572.999 426.065L572.675 426.252L572.352 426.065L516.375 393.747L516.053 393.56V328.178L516.375 327.991L572.352 295.674L572.675 295.487L572.999 295.674L628.975 327.991L629.298 328.178V393.56Z" stroke="#FFE08B" stroke-width="1.29272"/>
<path d="M743.058 393.56L742.735 393.747L686.758 426.065L686.435 426.252L686.112 426.065L630.135 393.747L629.813 393.56V328.178L630.135 327.991L686.112 295.674L686.435 295.487L686.758 295.674L742.735 327.991L743.058 328.178V393.56Z" stroke="#FFE08B" stroke-width="1.29272"/>
<path d="M799.352 98.8198L799.029 99.0063L743.052 131.325L742.729 131.511L742.406 131.325L686.429 99.0063L686.107 98.8198V33.438L686.429 33.2505L742.406 0.933105L742.729 0.746582L743.052 0.933105L799.029 33.2505L799.352 33.438V98.8198Z" stroke="#FFE08B" stroke-width="1.29272"/>
<path d="M911.819 98.8198L911.496 99.0063L855.519 131.325L855.196 131.511L854.873 131.325L798.896 99.0063L798.574 98.8198V33.438L798.896 33.2505L854.873 0.933105L855.196 0.746582L855.519 0.933105L911.496 33.2505L911.819 33.438V98.8198Z" stroke="#FFE08B" stroke-width="1.29272"/>
<path d="M1025.58 98.8198L1025.26 99.0063L969.279 131.325L968.955 131.511L968.632 131.325L912.656 99.0063L912.333 98.8198V33.438L912.656 33.2505L968.632 0.933105L968.955 0.746582L969.279 0.933105L1025.26 33.2505L1025.58 33.438V98.8198Z" stroke="#FFE08B" stroke-width="1.29272"/>
<path d="M856.232 197.067L855.909 197.253L799.932 229.572L799.609 229.758L799.286 229.572L743.309 197.253L742.987 197.067V131.685L743.309 131.497L799.286 99.1799L799.609 98.9934L799.932 99.1799L855.909 131.497L856.232 131.685V197.067Z" stroke="#FFE08B" stroke-width="1.29272"/>
<path d="M968.699 197.067L968.375 197.253L912.399 229.572L912.076 229.758L911.752 229.572L855.776 197.253L855.454 197.067V131.685L855.776 131.497L911.752 99.1799L912.076 98.9934L912.399 99.1799L968.375 131.497L968.699 131.685V197.067Z" stroke="#FFE08B" stroke-width="1.29272"/>
<path d="M1082.46 197.067L1082.13 197.253L1026.16 229.572L1025.83 229.758L1025.51 229.572L969.535 197.253L969.213 197.067V131.685L969.535 131.497L1025.51 99.1799L1025.83 98.9934L1026.16 99.1799L1082.13 131.497L1082.46 131.685V197.067Z" stroke="#FFE08B" stroke-width="1.29272"/>
<path d="M1138.05 98.8198L1137.72 99.0063L1081.75 131.325L1081.42 131.511L1081.1 131.325L1025.12 99.0063L1024.8 98.8198V33.438L1025.12 33.2505L1081.1 0.933105L1081.42 0.746582L1081.75 0.933105L1137.72 33.2505L1138.05 33.438V98.8198Z" stroke="#FFE08B" stroke-width="1.29272"/>
<path d="M1250.51 98.8198L1250.19 99.0063L1194.21 131.325L1193.89 131.511L1193.57 131.325L1137.59 99.0063L1137.27 98.8198V33.438L1137.59 33.2505L1193.57 0.933105L1193.89 0.746582L1194.21 0.933105L1250.19 33.2505L1250.51 33.438V98.8198Z" stroke="#FFE08B" stroke-width="1.29272"/>
<path d="M1364.27 98.8198L1363.95 99.0063L1307.97 131.325L1307.65 131.511L1307.33 131.325L1251.35 99.0063L1251.03 98.8198V33.438L1251.35 33.2505L1307.33 0.933105L1307.65 0.746582L1307.97 0.933105L1363.95 33.2505L1364.27 33.438V98.8198Z" stroke="#FFE08B" stroke-width="1.29272"/>
<path d="M1194.92 197.067L1194.6 197.253L1138.62 229.572L1138.3 229.758L1137.98 229.572L1082 197.253L1081.68 197.067V131.685L1082 131.497L1137.98 99.1799L1138.3 98.9934L1138.62 99.1799L1194.6 131.497L1194.92 131.685V197.067Z" stroke="#FFE08B" stroke-width="1.29272"/>
<path d="M1307.39 197.067L1307.07 197.253L1251.09 229.572L1250.77 229.758L1250.45 229.572L1194.47 197.253L1194.15 197.067V131.685L1194.47 131.497L1250.45 99.1799L1250.77 98.9934L1251.09 99.1799L1307.07 131.497L1307.39 131.685V197.067Z" stroke="#FFE08B" stroke-width="1.29272"/>
<path d="M1421.15 197.067L1420.83 197.253L1364.85 229.572L1364.53 229.758L1364.2 229.572L1308.23 197.253L1307.91 197.067V131.685L1308.23 131.497L1364.2 99.1799L1364.53 98.9934L1364.85 99.1799L1420.83 131.497L1421.15 131.685V197.067Z" stroke="#FFE08B" stroke-width="1.29272"/>
<path d="M799.352 295.313L799.029 295.5L743.052 327.818L742.729 328.005L742.406 327.818L686.429 295.5L686.107 295.313V229.932L686.429 229.744L742.406 197.427L742.729 197.24L743.052 197.427L799.029 229.744L799.352 229.932V295.313Z" stroke="#FFE08B" stroke-width="1.29272"/>
<path d="M911.819 295.313L911.496 295.5L855.519 327.818L855.196 328.005L854.873 327.818L798.896 295.5L798.574 295.313V229.932L798.896 229.744L854.873 197.427L855.196 197.24L855.519 197.427L911.496 229.744L911.819 229.932V295.313Z" stroke="#FFE08B" stroke-width="1.29272"/>
<path d="M1025.58 295.313L1025.26 295.5L969.279 327.818L968.955 328.005L968.632 327.818L912.656 295.5L912.333 295.313V229.932L912.656 229.744L968.632 197.427L968.955 197.24L969.279 197.427L1025.26 229.744L1025.58 229.932V295.313Z" stroke="#FFE08B" stroke-width="1.29272"/>
<path d="M856.232 393.56L855.909 393.747L799.932 426.065L799.609 426.252L799.286 426.065L743.309 393.747L742.987 393.56V328.178L743.309 327.991L799.286 295.674L799.609 295.487L799.932 295.674L855.909 327.991L856.232 328.178V393.56Z" stroke="#FFE08B" stroke-width="1.29272"/>
<path d="M968.699 393.56L968.375 393.747L912.399 426.065L912.076 426.252L911.752 426.065L855.776 393.747L855.454 393.56V328.178L855.776 327.991L911.752 295.674L912.076 295.487L912.399 295.674L968.375 327.991L968.699 328.178V393.56Z" stroke="#FFE08B" stroke-width="1.29272"/>
<path d="M1082.46 393.56L1082.13 393.747L1026.16 426.065L1025.83 426.252L1025.51 426.065L969.535 393.747L969.213 393.56V328.178L969.535 327.991L1025.51 295.674L1025.83 295.487L1026.16 295.674L1082.13 327.991L1082.46 328.178V393.56Z" stroke="#FFE08B" stroke-width="1.29272"/>
<path d="M1138.05 295.313L1137.72 295.5L1081.75 327.818L1081.42 328.005L1081.1 327.818L1025.12 295.5L1024.8 295.313V229.932L1025.12 229.744L1081.1 197.427L1081.42 197.24L1081.75 197.427L1137.72 229.744L1138.05 229.932V295.313Z" stroke="#FFE08B" stroke-width="1.29272"/>
<path d="M1250.51 295.313L1250.19 295.5L1194.21 327.818L1193.89 328.005L1193.57 327.818L1137.59 295.5L1137.27 295.313V229.932L1137.59 229.744L1193.57 197.427L1193.89 197.24L1194.21 197.427L1250.19 229.744L1250.51 229.932V295.313Z" stroke="#FFE08B" stroke-width="1.29272"/>
<path d="M1364.27 295.313L1363.95 295.5L1307.97 327.818L1307.65 328.005L1307.33 327.818L1251.35 295.5L1251.03 295.313V229.932L1251.35 229.744L1307.33 197.427L1307.65 197.24L1307.97 197.427L1363.95 229.744L1364.27 229.932V295.313Z" stroke="#FFE08B" stroke-width="1.29272"/>
<path d="M1194.92 393.56L1194.6 393.747L1138.62 426.065L1138.3 426.252L1137.98 426.065L1082 393.747L1081.68 393.56V328.178L1082 327.991L1137.98 295.674L1138.3 295.487L1138.62 295.674L1194.6 327.991L1194.92 328.178V393.56Z" stroke="#FFE08B" stroke-width="1.29272"/>
<path d="M1307.39 393.56L1307.07 393.747L1251.09 426.065L1250.77 426.252L1250.45 426.065L1194.47 393.747L1194.15 393.56V328.178L1194.47 327.991L1250.45 295.674L1250.77 295.487L1251.09 295.674L1307.07 327.991L1307.39 328.178V393.56Z" stroke="#FFE08B" stroke-width="1.29272"/>
<path d="M1421.15 393.56L1420.83 393.747L1364.85 426.065L1364.53 426.252L1364.2 426.065L1308.23 393.747L1307.91 393.56V328.178L1308.23 327.991L1364.2 295.674L1364.53 295.487L1364.85 295.674L1420.83 327.991L1421.15 328.178V393.56Z" stroke="#FFE08B" stroke-width="1.29272"/>
<path d="M121.259 491.807L120.936 491.994L64.959 524.312L64.6357 524.499L64.3125 524.312L8.33594 491.994L8.01367 491.807V426.425L8.33594 426.238L64.3125 393.92L64.6357 393.734L64.959 393.92L120.936 426.238L121.259 426.425V491.807Z" stroke="#FFE08B" stroke-width="1.29272"/>
<path d="M233.726 491.807L233.402 491.994L177.426 524.312L177.103 524.499L176.779 524.312L120.803 491.994L120.48 491.807V426.425L120.803 426.238L176.779 393.92L177.103 393.734L177.426 393.92L233.402 426.238L233.726 426.425V491.807Z" stroke="#FFE08B" stroke-width="1.29272"/>
<path d="M347.485 491.807L347.162 491.994L291.185 524.312L290.862 524.499L290.539 524.312L234.562 491.994L234.24 491.807V426.425L234.562 426.238L290.539 393.92L290.862 393.734L291.185 393.92L347.162 426.238L347.485 426.425V491.807Z" stroke="#FFE08B" stroke-width="1.29272"/>
<path d="M178.139 590.054L177.815 590.241L121.839 622.559L121.516 622.745L121.192 622.559L65.2158 590.241L64.8936 590.054V524.672L65.2158 524.485L121.192 492.167L121.516 491.981L121.839 492.167L177.815 524.485L178.139 524.672V590.054Z" stroke="#FFE08B" stroke-width="1.29272"/>
<path d="M290.605 590.054L290.282 590.241L234.305 622.559L233.982 622.745L233.659 622.559L177.682 590.241L177.36 590.054V524.672L177.682 524.485L233.659 492.167L233.982 491.981L234.305 492.167L290.282 524.485L290.605 524.672V590.054Z" stroke="#FFE08B" stroke-width="1.29272"/>
<path d="M404.365 590.054L404.042 590.241L348.065 622.559L347.742 622.745L347.418 622.559L291.442 590.241L291.12 590.054V524.672L291.442 524.485L347.418 492.167L347.742 491.981L348.065 492.167L404.042 524.485L404.365 524.672V590.054Z" stroke="#FFE08B" stroke-width="1.29272"/>
<path d="M459.952 491.807L459.628 491.994L403.652 524.312L403.329 524.499L403.005 524.312L347.029 491.994L346.707 491.807V426.425L347.029 426.238L403.005 393.92L403.329 393.734L403.652 393.92L459.628 426.238L459.952 426.425V491.807Z" stroke="#FFE08B" stroke-width="1.29272"/>
<path d="M572.418 491.807L572.095 491.994L516.119 524.312L515.795 524.499L515.472 524.312L459.496 491.994L459.173 491.807V426.425L459.496 426.238L515.472 393.92L515.795 393.734L516.119 393.92L572.095 426.238L572.418 426.425V491.807Z" stroke="#FFE08B" stroke-width="1.29272"/>
<path d="M686.178 491.807L685.855 491.994L629.878 524.312L629.555 524.499L629.232 524.312L573.255 491.994L572.933 491.807V426.425L573.255 426.238L629.232 393.92L629.555 393.734L629.878 393.92L685.855 426.238L686.178 426.425V491.807Z" stroke="#FFE08B" stroke-width="1.29272"/>
<path d="M516.832 590.054L516.508 590.241L460.532 622.559L460.208 622.745L459.885 622.559L403.909 590.241L403.586 590.054V524.672L403.909 524.485L459.885 492.167L460.208 491.981L460.532 492.167L516.508 524.485L516.832 524.672V590.054Z" stroke="#FFE08B" stroke-width="1.29272"/>
<path d="M629.298 590.054L628.975 590.241L572.999 622.559L572.675 622.745L572.352 622.559L516.375 590.241L516.053 590.054V524.672L516.375 524.485L572.352 492.167L572.675 491.981L572.999 492.167L628.975 524.485L629.298 524.672V590.054Z" stroke="#FFE08B" stroke-width="1.29272"/>
<path d="M743.058 590.054L742.735 590.241L686.758 622.559L686.435 622.745L686.112 622.559L630.135 590.241L629.813 590.054V524.672L630.135 524.485L686.112 492.167L686.435 491.981L686.758 492.167L742.735 524.485L743.058 524.672V590.054Z" stroke="#FFE08B" stroke-width="1.29272"/>
<path d="M121.259 688.301L120.936 688.487L64.959 720.806L64.6357 720.992L64.3125 720.806L8.33594 688.487L8.01367 688.301V622.919L8.33594 622.731L64.3125 590.414L64.6357 590.228L64.959 590.414L120.936 622.731L121.259 622.919V688.301Z" stroke="#FFE08B" stroke-width="1.29272"/>
<path d="M233.726 688.301L233.402 688.487L177.426 720.806L177.103 720.992L176.779 720.806L120.803 688.487L120.48 688.301V622.919L120.803 622.731L176.779 590.414L177.103 590.228L177.426 590.414L233.402 622.731L233.726 622.919V688.301Z" stroke="#FFE08B" stroke-width="1.29272"/>
<path d="M347.485 688.301L347.162 688.487L291.185 720.806L290.862 720.992L290.539 720.806L234.562 688.487L234.24 688.301V622.919L234.562 622.731L290.539 590.414L290.862 590.228L291.185 590.414L347.162 622.731L347.485 622.919V688.301Z" stroke="#FFE08B" stroke-width="1.29272"/>
<path d="M178.139 786.548L177.815 786.734L121.839 819.052L121.516 819.239L121.192 819.052L65.2158 786.734L64.8936 786.548V721.166L65.2158 720.978L121.192 688.661L121.516 688.474L121.839 688.661L177.815 720.978L178.139 721.166V786.548Z" stroke="#FFE08B" stroke-width="1.29272"/>
<path d="M290.605 786.548L290.282 786.734L234.305 819.052L233.982 819.239L233.659 819.052L177.682 786.734L177.36 786.548V721.166L177.682 720.978L233.659 688.661L233.982 688.474L234.305 688.661L290.282 720.978L290.605 721.166V786.548Z" stroke="#FFE08B" stroke-width="1.29272"/>
<path d="M404.365 786.548L404.042 786.734L348.065 819.052L347.742 819.239L347.418 819.052L291.442 786.734L291.12 786.548V721.166L291.442 720.978L347.418 688.661L347.742 688.474L348.065 688.661L404.042 720.978L404.365 721.166V786.548Z" stroke="#FFE08B" stroke-width="1.29272"/>
<path d="M459.952 688.301L459.628 688.487L403.652 720.806L403.329 720.992L403.005 720.806L347.029 688.487L346.707 688.301V622.919L347.029 622.731L403.005 590.414L403.329 590.228L403.652 590.414L459.628 622.731L459.952 622.919V688.301Z" stroke="#FFE08B" stroke-width="1.29272"/>
<path d="M572.418 688.301L572.095 688.487L516.119 720.806L515.795 720.992L515.472 720.806L459.496 688.487L459.173 688.301V622.919L459.496 622.731L515.472 590.414L515.795 590.228L516.119 590.414L572.095 622.731L572.418 622.919V688.301Z" stroke="#FFE08B" stroke-width="1.29272"/>
<path d="M686.178 688.301L685.855 688.487L629.878 720.806L629.555 720.992L629.232 720.806L573.255 688.487L572.933 688.301V622.919L573.255 622.731L629.232 590.414L629.555 590.228L629.878 590.414L685.855 622.731L686.178 622.919V688.301Z" stroke="#FFE08B" stroke-width="1.29272"/>
<path d="M516.832 786.548L516.508 786.734L460.532 819.052L460.208 819.239L459.885 819.052L403.909 786.734L403.586 786.548V721.166L403.909 720.978L459.885 688.661L460.208 688.474L460.532 688.661L516.508 720.978L516.832 721.166V786.548Z" stroke="#FFE08B" stroke-width="1.29272"/>
<path d="M629.298 786.548L628.975 786.734L572.999 819.052L572.675 819.239L572.352 819.052L516.375 786.734L516.053 786.548V721.166L516.375 720.978L572.352 688.661L572.675 688.474L572.999 688.661L628.975 720.978L629.298 721.166V786.548Z" stroke="#FFE08B" stroke-width="1.29272"/>
<path d="M743.058 786.548L742.735 786.734L686.758 819.052L686.435 819.239L686.112 819.052L630.135 786.734L629.813 786.548V721.166L630.135 720.978L686.112 688.661L686.435 688.474L686.758 688.661L742.735 720.978L743.058 721.166V786.548Z" stroke="#FFE08B" stroke-width="1.29272"/>
<path d="M799.352 491.807L799.029 491.994L743.052 524.312L742.729 524.499L742.406 524.312L686.429 491.994L686.107 491.807V426.425L686.429 426.238L742.406 393.92L742.729 393.734L743.052 393.92L799.029 426.238L799.352 426.425V491.807Z" stroke="#FFE08B" stroke-width="1.29272"/>
<path d="M911.819 491.807L911.496 491.994L855.519 524.312L855.196 524.499L854.873 524.312L798.896 491.994L798.574 491.807V426.425L798.896 426.238L854.873 393.92L855.196 393.734L855.519 393.92L911.496 426.238L911.819 426.425V491.807Z" stroke="#FFE08B" stroke-width="1.29272"/>
<path d="M1025.58 491.807L1025.26 491.994L969.279 524.312L968.955 524.499L968.632 524.312L912.656 491.994L912.333 491.807V426.425L912.656 426.238L968.632 393.92L968.955 393.734L969.279 393.92L1025.26 426.238L1025.58 426.425V491.807Z" stroke="#FFE08B" stroke-width="1.29272"/>
<path d="M856.232 590.054L855.909 590.241L799.932 622.559L799.609 622.745L799.286 622.559L743.309 590.241L742.987 590.054V524.672L743.309 524.485L799.286 492.167L799.609 491.981L799.932 492.167L855.909 524.485L856.232 524.672V590.054Z" stroke="#FFE08B" stroke-width="1.29272"/>
<path d="M968.699 590.054L968.375 590.241L912.399 622.559L912.076 622.745L911.752 622.559L855.776 590.241L855.454 590.054V524.672L855.776 524.485L911.752 492.167L912.076 491.981L912.399 492.167L968.375 524.485L968.699 524.672V590.054Z" stroke="#FFE08B" stroke-width="1.29272"/>
<path d="M1082.46 590.054L1082.13 590.241L1026.16 622.559L1025.83 622.745L1025.51 622.559L969.535 590.241L969.213 590.054V524.672L969.535 524.485L1025.51 492.167L1025.83 491.981L1026.16 492.167L1082.13 524.485L1082.46 524.672V590.054Z" stroke="#FFE08B" stroke-width="1.29272"/>
<path d="M1138.05 491.807L1137.72 491.994L1081.75 524.312L1081.42 524.499L1081.1 524.312L1025.12 491.994L1024.8 491.807V426.425L1025.12 426.238L1081.1 393.92L1081.42 393.734L1081.75 393.92L1137.72 426.238L1138.05 426.425V491.807Z" stroke="#FFE08B" stroke-width="1.29272"/>
<path d="M1250.51 491.807L1250.19 491.994L1194.21 524.312L1193.89 524.499L1193.57 524.312L1137.59 491.994L1137.27 491.807V426.425L1137.59 426.238L1193.57 393.92L1193.89 393.734L1194.21 393.92L1250.19 426.238L1250.51 426.425V491.807Z" stroke="#FFE08B" stroke-width="1.29272"/>
<path d="M1364.27 491.807L1363.95 491.994L1307.97 524.312L1307.65 524.499L1307.33 524.312L1251.35 491.994L1251.03 491.807V426.425L1251.35 426.238L1307.33 393.92L1307.65 393.734L1307.97 393.92L1363.95 426.238L1364.27 426.425V491.807Z" stroke="#FFE08B" stroke-width="1.29272"/>
<path d="M1194.92 590.054L1194.6 590.241L1138.62 622.559L1138.3 622.745L1137.98 622.559L1082 590.241L1081.68 590.054V524.672L1082 524.485L1137.98 492.167L1138.3 491.981L1138.62 492.167L1194.6 524.485L1194.92 524.672V590.054Z" stroke="#FFE08B" stroke-width="1.29272"/>
<path d="M1307.39 590.054L1307.07 590.241L1251.09 622.559L1250.77 622.745L1250.45 622.559L1194.47 590.241L1194.15 590.054V524.672L1194.47 524.485L1250.45 492.167L1250.77 491.981L1251.09 492.167L1307.07 524.485L1307.39 524.672V590.054Z" stroke="#FFE08B" stroke-width="1.29272"/>
<path d="M1421.15 590.054L1420.83 590.241L1364.85 622.559L1364.53 622.745L1364.2 622.559L1308.23 590.241L1307.91 590.054V524.672L1308.23 524.485L1364.2 492.167L1364.53 491.981L1364.85 492.167L1420.83 524.485L1421.15 524.672V590.054Z" stroke="#FFE08B" stroke-width="1.29272"/>
<path d="M799.352 688.301L799.029 688.487L743.052 720.806L742.729 720.992L742.406 720.806L686.429 688.487L686.107 688.301V622.919L686.429 622.731L742.406 590.414L742.729 590.228L743.052 590.414L799.029 622.731L799.352 622.919V688.301Z" stroke="#FFE08B" stroke-width="1.29272"/>
<path d="M911.819 688.301L911.496 688.487L855.519 720.806L855.196 720.992L854.873 720.806L798.896 688.487L798.574 688.301V622.919L798.896 622.731L854.873 590.414L855.196 590.228L855.519 590.414L911.496 622.731L911.819 622.919V688.301Z" stroke="#FFE08B" stroke-width="1.29272"/>
<path d="M1025.58 688.301L1025.26 688.487L969.279 720.806L968.955 720.992L968.632 720.806L912.656 688.487L912.333 688.301V622.919L912.656 622.731L968.632 590.414L968.955 590.228L969.279 590.414L1025.26 622.731L1025.58 622.919V688.301Z" stroke="#FFE08B" stroke-width="1.29272"/>
<path d="M856.232 786.548L855.909 786.734L799.932 819.052L799.609 819.239L799.286 819.052L743.309 786.734L742.987 786.548V721.166L743.309 720.978L799.286 688.661L799.609 688.474L799.932 688.661L855.909 720.978L856.232 721.166V786.548Z" stroke="#FFE08B" stroke-width="1.29272"/>
<path d="M968.699 786.548L968.375 786.734L912.399 819.052L912.076 819.239L911.752 819.052L855.776 786.734L855.454 786.548V721.166L855.776 720.978L911.752 688.661L912.076 688.474L912.399 688.661L968.375 720.978L968.699 721.166V786.548Z" stroke="#FFE08B" stroke-width="1.29272"/>
<path d="M1082.46 786.548L1082.13 786.734L1026.16 819.052L1025.83 819.239L1025.51 819.052L969.535 786.734L969.213 786.548V721.166L969.535 720.978L1025.51 688.661L1025.83 688.474L1026.16 688.661L1082.13 720.978L1082.46 721.166V786.548Z" stroke="#FFE08B" stroke-width="1.29272"/>
<path d="M1138.05 688.301L1137.72 688.487L1081.75 720.806L1081.42 720.992L1081.1 720.806L1025.12 688.487L1024.8 688.301V622.919L1025.12 622.731L1081.1 590.414L1081.42 590.228L1081.75 590.414L1137.72 622.731L1138.05 622.919V688.301Z" stroke="#FFE08B" stroke-width="1.29272"/>
<path d="M1250.51 688.301L1250.19 688.487L1194.21 720.806L1193.89 720.992L1193.57 720.806L1137.59 688.487L1137.27 688.301V622.919L1137.59 622.731L1193.57 590.414L1193.89 590.228L1194.21 590.414L1250.19 622.731L1250.51 622.919V688.301Z" stroke="#FFE08B" stroke-width="1.29272"/>
<path d="M1364.27 688.301L1363.95 688.487L1307.97 720.806L1307.65 720.992L1307.33 720.806L1251.35 688.487L1251.03 688.301V622.919L1251.35 622.731L1307.33 590.414L1307.65 590.228L1307.97 590.414L1363.95 622.731L1364.27 622.919V688.301Z" stroke="#FFE08B" stroke-width="1.29272"/>
<path d="M1194.92 786.548L1194.6 786.734L1138.62 819.052L1138.3 819.239L1137.98 819.052L1082 786.734L1081.68 786.548V721.166L1082 720.978L1137.98 688.661L1138.3 688.474L1138.62 688.661L1194.6 720.978L1194.92 721.166V786.548Z" stroke="#FFE08B" stroke-width="1.29272"/>
<path d="M1307.39 786.548L1307.07 786.734L1251.09 819.052L1250.77 819.239L1250.45 819.052L1194.47 786.734L1194.15 786.548V721.166L1194.47 720.978L1250.45 688.661L1250.77 688.474L1251.09 688.661L1307.07 720.978L1307.39 721.166V786.548Z" stroke="#FFE08B" stroke-width="1.29272"/>
<path d="M1421.15 786.548L1420.83 786.734L1364.85 819.052L1364.53 819.239L1364.2 819.052L1308.23 786.734L1307.91 786.548V721.166L1308.23 720.978L1364.2 688.661L1364.53 688.474L1364.85 688.661L1420.83 720.978L1421.15 721.166V786.548Z" stroke="#FFE08B" stroke-width="1.29272"/>
</svg>
