<?xml version="1.0" encoding="UTF-8" standalone="no"?><!DOCTYPE svg PUBLIC "-//W3C//DTD SVG 1.1//EN" "http://www.w3.org/Graphics/SVG/1.1/DTD/svg11.dtd"><svg width="100%" height="100%" viewBox="0 0 823 1491" version="1.1" xmlns="http://www.w3.org/2000/svg" xmlns:xlink="http://www.w3.org/1999/xlink" xml:space="preserve" xmlns:serif="http://www.serif.com/" style="fill-rule:evenodd;clip-rule:evenodd;stroke-linejoin:round;stroke-miterlimit:2;"><g id="_2992050304704"><clipPath id="_clip1"><rect x="-0" y="221.502" width="822.399" height="1318.496"/></clipPath><g clip-path="url(#_clip1)"><g><ellipse cx="411.356" cy="625.233" rx="94.039" ry="163.812" style="fill:#ffbb58;"/><ellipse cx="411.356" cy="649.501" rx="94.039" ry="78.872"/><ellipse cx="411.356" cy="619.167" rx="94.039" ry="78.872" style="fill:#ffbb58;"/><ellipse cx="411.356" cy="588.829" rx="94.039" ry="78.872"/><ellipse cx="411.356" cy="567.595" rx="87.972" ry="69.771" style="fill:#ffbb58;"/><circle cx="411.356" cy="464.454" r="94.039" style="fill:#ffd35b;"/><g><path d="M696.272,446.963c-18.507,13.86 -42.034,22.063 -65.394,26.787c-23.319,4.72 -46.238,5.92 -63.353,5.939c-8.552,0.006 -15.638,-0.279 -20.578,-0.566c-2.469,-0.144 -4.403,-0.291 -5.712,-0.397c-0.657,-0.057 -1.16,-0.1 -1.494,-0.132c-0.165,-0.015 -0.294,-0.027 -0.374,-0.037c-0.041,-0.004 -0.072,-0.009 -0.091,-0.009c-0.009,0 -0.019,-0.004 -0.022,-0.004l-0.002,0.004l-0.081,-0.013l-0.081,-0.002l-199.906,-9.07l335.781,-119.072c14.425,-5.115 29.706,-3.619 40.794,2.953c11.009,6.52 17.797,17.931 15.883,32.988c-3.484,27.462 -16.968,46.853 -35.368,60.631Z" style="fill:#d9d9d9;fill-opacity:0.75;fill-rule:nonzero;"/><path d="M696.272,446.963c-18.507,13.86 -42.034,22.063 -65.394,26.787c-23.319,4.72 -46.238,5.92 -63.353,5.939c-8.552,0.006 -15.638,-0.279 -20.578,-0.566c-2.469,-0.144 -4.403,-0.291 -5.712,-0.397c-0.657,-0.057 -1.16,-0.1 -1.494,-0.132c-0.165,-0.015 -0.294,-0.027 -0.374,-0.037c-0.041,-0.004 -0.072,-0.009 -0.091,-0.009c-0.009,0 -0.019,-0.004 -0.022,-0.004l-0.002,0.004l-0.081,-0.013l-0.081,-0.002l-199.906,-9.07l335.781,-119.072c14.425,-5.115 29.706,-3.619 40.794,2.953c11.009,6.52 17.797,17.931 15.883,32.988c-3.484,27.462 -16.968,46.853 -35.368,60.631Z" style="fill:none;fill-rule:nonzero;"/></g><g><path d="M664.703,514.404c-18.009,8.172 -39.52,10.441 -60.397,9.729c-20.844,-0.716 -40.817,-4.388 -55.604,-7.9c-7.387,-1.753 -13.462,-3.463 -17.687,-4.731c-2.109,-0.631 -3.756,-1.153 -4.869,-1.519c-0.56,-0.181 -0.985,-0.325 -1.266,-0.418c-0.144,-0.051 -0.25,-0.085 -0.319,-0.106c-0.034,-0.013 -0.059,-0.022 -0.074,-0.028c-0.009,0 -0.015,-0.004 -0.019,-0.006l-0.004,-0.004l-0.078,-0.025l-0.084,-0.025l-169.376,-48.503l305.607,-33.317c13.303,-1.449 26.291,2.867 34.891,10.644c8.525,7.713 12.665,18.716 8.825,31.103c-7.144,23.031 -21.663,36.991 -39.547,45.106Z" style="fill:#d9d9d9;fill-opacity:0.75;fill-rule:nonzero;"/><path d="M664.703,514.404c-18.009,8.172 -39.52,10.441 -60.397,9.729c-20.844,-0.716 -40.817,-4.388 -55.604,-7.9c-7.387,-1.753 -13.462,-3.463 -17.687,-4.731c-2.109,-0.631 -3.756,-1.153 -4.869,-1.519c-0.56,-0.181 -0.985,-0.325 -1.266,-0.418c-0.144,-0.051 -0.25,-0.085 -0.319,-0.106c-0.034,-0.013 -0.059,-0.022 -0.074,-0.028c-0.009,0 -0.015,-0.004 -0.019,-0.006l-0.004,-0.004l-0.078,-0.025l-0.084,-0.025l-169.376,-48.503l305.607,-33.317c13.303,-1.449 26.291,2.867 34.891,10.644c8.525,7.713 12.665,18.716 8.825,31.103c-7.144,23.031 -21.663,36.991 -39.547,45.106Z" style="fill:none;fill-rule:nonzero;"/></g><g><path d="M129.872,446.963c18.508,13.86 42.037,22.063 65.394,26.787c23.321,4.72 46.24,5.92 63.356,5.939c8.55,0.006 15.638,-0.279 20.578,-0.566c2.469,-0.144 4.4,-0.291 5.713,-0.397c0.656,-0.057 1.156,-0.1 1.491,-0.132c0.169,-0.015 0.293,-0.027 0.374,-0.037c0.041,-0.004 0.072,-0.009 0.091,-0.009c0.009,0 0.019,-0.004 0.025,-0.004l0,0.004l0.081,-0.013l0.081,-0.002l199.906,-9.07l-335.781,-119.072c-14.425,-5.115 -29.705,-3.619 -40.794,2.953c-11.007,6.52 -17.794,17.931 -15.885,32.988c3.484,27.462 16.969,46.853 35.369,60.631Z" style="fill:#d9d9d9;fill-opacity:0.75;fill-rule:nonzero;"/><path d="M129.872,446.963c18.508,13.86 42.037,22.063 65.394,26.787c23.321,4.72 46.24,5.92 63.356,5.939c8.55,0.006 15.638,-0.279 20.578,-0.566c2.469,-0.144 4.4,-0.291 5.713,-0.397c0.656,-0.057 1.156,-0.1 1.491,-0.132c0.169,-0.015 0.293,-0.027 0.374,-0.037c0.041,-0.004 0.072,-0.009 0.091,-0.009c0.009,0 0.019,-0.004 0.025,-0.004l0,0.004l0.081,-0.013l0.081,-0.002l199.906,-9.07l-335.781,-119.072c-14.425,-5.115 -29.705,-3.619 -40.794,2.953c-11.007,6.52 -17.794,17.931 -15.885,32.988c3.484,27.462 16.969,46.853 35.369,60.631Z" style="fill:none;fill-rule:nonzero;"/></g><g><path d="M152.95,514.404c18.009,8.172 39.516,10.441 60.396,9.729c20.844,-0.716 40.817,-4.388 55.604,-7.9c7.387,-1.753 13.462,-3.463 17.683,-4.731c2.113,-0.631 3.759,-1.153 4.872,-1.519c0.56,-0.181 0.985,-0.325 1.266,-0.418c0.141,-0.051 0.25,-0.085 0.319,-0.106c0.034,-0.013 0.059,-0.022 0.074,-0.028c0.009,0 0.015,-0.004 0.019,-0.006l0.004,-0.004l0.078,-0.025l0.084,-0.025l169.376,-48.503l-305.606,-33.317c-13.304,-1.449 -26.293,2.867 -34.891,10.644c-8.526,7.713 -12.665,18.716 -8.825,31.103c7.141,23.031 21.663,36.991 39.547,45.106Z" style="fill:#d9d9d9;fill-opacity:0.75;fill-rule:nonzero;"/><path d="M152.95,514.404c18.009,8.172 39.516,10.441 60.396,9.729c20.844,-0.716 40.817,-4.388 55.604,-7.9c7.387,-1.753 13.462,-3.463 17.683,-4.731c2.113,-0.631 3.759,-1.153 4.872,-1.519c0.56,-0.181 0.985,-0.325 1.266,-0.418c0.141,-0.051 0.25,-0.085 0.319,-0.106c0.034,-0.013 0.059,-0.022 0.074,-0.028c0.009,0 0.015,-0.004 0.019,-0.006l0.004,-0.004l0.078,-0.025l0.084,-0.025l169.376,-48.503l-305.606,-33.317c-13.304,-1.449 -26.293,2.867 -34.891,10.644c-8.526,7.713 -12.665,18.716 -8.825,31.103c7.141,23.031 21.663,36.991 39.547,45.106Z" style="fill:none;fill-rule:nonzero;"/></g><ellipse cx="414.387" cy="315.81" rx="91.006" ry="60.671" style="fill:#ffd35b;"/><circle cx="411.356" cy="428.052" r="94.039" style="fill:#eaac52;"/><ellipse cx="342.494" cy="312.78" rx="19.111" ry="27.301"/><ellipse cx="488.102" cy="312.776" rx="19.111" ry="27.301"/><path d="M387.441,262.757l-6.837,-25.163c-1.631,-5.995 -6.207,-10.746 -12.138,-12.599l-87.553,-27.361" style="fill:none;fill-rule:nonzero;"/><path d="M445.656,262.889l6.841,-25.162c1.628,-5.996 6.203,-10.747 12.133,-12.6l87.554,-27.36" style="fill:none;fill-rule:nonzero;"/><path d="M822.399,237.405l0,474.815l-411.2,237.403l-411.2,-237.403l0,-474.815l411.2,-237.405l411.2,237.405Z" style="fill:none;fill-rule:nonzero;"/></g><g><path d="M130.263,1490.274l0,-325.499c0,-34.243 27.758,-62.001 62,-62.001l25.44,0l0,151.368l115.747,0l0,-151.368l87.438,0l0,387.5l-87.438,0l0,-151.367l-100.247,0c-8.561,0 -15.5,6.94 -15.5,15.5l0,135.867l-87.439,0Z" style="fill:#ffbb58;fill-rule:nonzero;"/><path d="M440.262,1490.274l0,-325.499c0,-34.243 27.759,-62.001 62,-62.001l189.875,0l0,84.767l-148.638,0c-8.562,0 -15.5,6.939 -15.5,15.5l0,51.102l147.797,0l0,84.765l-132.298,0c-8.562,0 -15.5,6.94 -15.5,15.5l0,135.867l-87.737,0Z" style="fill:#ffbb58;fill-rule:nonzero;"/></g></g></g></svg>