<?xml version="1.0" encoding="UTF-8" standalone="no"?><!DOCTYPE svg PUBLIC "-//W3C//DTD SVG 1.1//EN" "http://www.w3.org/Graphics/SVG/1.1/DTD/svg11.dtd"><svg width="100%" height="100%" viewBox="0 0 775 346" version="1.1" xmlns="http://www.w3.org/2000/svg" xmlns:xlink="http://www.w3.org/1999/xlink" xml:space="preserve" xmlns:serif="http://www.serif.com/" style="fill-rule:evenodd;clip-rule:evenodd;"><g id="_2992050304704"><clipPath id="_clip1"><rect x="0" y="0" width="774.53" height="345.087"/></clipPath><g clip-path="url(#_clip1)"><path d="M406.436,289.121l0,-210.654c0,-22.16 17.964,-40.124 40.124,-40.124l16.464,0l0,97.96l74.908,0l0,-97.96l56.587,0l0,250.778l-56.587,0l0,-97.96l-64.877,0c-5.54,0 -10.031,4.492 -10.031,10.031l0,87.929l-56.588,0Z" style="fill:#ffbb58;fill-rule:nonzero;"/><path d="M607.059,289.121l0,-210.654c0,-22.16 17.964,-40.124 40.124,-40.124l122.883,0l0,54.858l-96.195,0c-5.541,0 -10.031,4.491 -10.031,10.031l0,33.072l95.651,0l0,54.857l-85.619,0c-5.541,0 -10.031,4.492 -10.031,10.031l0,87.929l-56.781,0Z" style="fill:#ffbb58;fill-rule:nonzero;"/><ellipse cx="170.919" cy="222.757" rx="32.441" ry="56.51" style="fill:#ffbb58;"/><ellipse cx="170.919" cy="231.128" rx="32.441" ry="27.208"/><ellipse cx="170.919" cy="220.663" rx="32.441" ry="27.208" style="fill:#ffbb58;"/><ellipse cx="170.919" cy="210.199" rx="32.441" ry="27.208"/><ellipse cx="170.919" cy="202.874" rx="30.348" ry="24.069" style="fill:#ffbb58;"/><circle cx="170.919" cy="167.294" r="32.441" style="fill:#ffd35b;"/><path d="M269.207,161.259c-6.384,4.781 -14.501,7.613 -22.559,9.243c-8.045,1.627 -15.952,2.042 -21.857,2.048c-2.949,0.003 -5.394,-0.1 -7.098,-0.199c-0.85,-0.05 -1.515,-0.097 -1.967,-0.134c-0.225,-0.018 -0.4,-0.036 -0.515,-0.047c-0.058,-0.005 -0.105,-0.005 -0.133,-0.008c-0.015,-0.002 -0.026,-0.004 -0.032,-0.005l-0.009,-0.005l-0.055,-0.004l-68.952,-3.126l115.825,-41.074c4.976,-1.765 10.249,-1.254 14.074,1.013c3.796,2.248 6.138,6.187 5.481,11.378c-1.202,9.474 -5.855,16.166 -12.202,20.92Z" style="fill:#d9d9d9;fill-opacity:0.75;fill-rule:nonzero;stroke:#d9d9d9;stroke-width:2.09px;"/><path d="M258.317,184.527c-6.213,2.819 -13.636,3.602 -20.839,3.356c-7.189,-0.246 -14.081,-1.517 -19.182,-2.728c-2.546,-0.605 -4.642,-1.196 -6.097,-1.633c-0.728,-0.219 -1.296,-0.399 -1.68,-0.525c-0.192,-0.062 -0.343,-0.107 -0.44,-0.14c-0.048,-0.016 -0.085,-0.033 -0.108,-0.041c-0.01,-0.003 -0.018,-0.003 -0.023,-0.005l-0.008,-0.006l-0.054,-0.017l-58.441,-16.732l105.433,-11.494c4.59,-0.501 9.075,0.988 12.041,3.672c2.94,2.662 4.367,6.459 3.042,10.731c-2.464,7.945 -7.474,12.762 -13.643,15.562Z" style="fill:#d9d9d9;fill-opacity:0.75;fill-rule:nonzero;stroke:#d9d9d9;stroke-width:2.09px;"/><path d="M73.816,161.259c6.384,4.781 14.501,7.613 22.559,9.243c8.045,1.627 15.952,2.042 21.857,2.048c2.949,0.003 5.394,-0.1 7.098,-0.199c0.85,-0.05 1.515,-0.097 1.967,-0.134c0.225,-0.018 0.4,-0.036 0.515,-0.047c0.058,-0.005 0.105,-0.005 0.134,-0.008c0.014,-0.002 0.025,-0.004 0.031,-0.005l0.009,-0.005l0.055,-0.004l68.952,-3.126l-115.825,-41.074c-4.976,-1.765 -10.249,-1.254 -14.074,1.012c-3.796,2.249 -6.137,6.187 -5.48,11.379c1.202,9.474 5.855,16.166 12.202,20.92Z" style="fill:#d9d9d9;fill-opacity:0.75;fill-rule:nonzero;stroke:#d9d9d9;stroke-width:2.09px;"/><path d="M81.777,184.526c6.213,2.819 13.637,3.603 20.839,3.357c7.189,-0.246 14.081,-1.518 19.182,-2.728c2.546,-0.604 4.641,-1.195 6.097,-1.632c0.728,-0.219 1.296,-0.4 1.68,-0.525c0.192,-0.063 0.343,-0.107 0.44,-0.14c0.048,-0.016 0.084,-0.033 0.108,-0.041c0.009,-0.004 0.018,-0.004 0.023,-0.005l0.008,-0.007l0.054,-0.017l58.441,-16.732l-105.433,-11.494c-4.59,-0.5 -9.075,0.989 -12.041,3.672c-2.941,2.661 -4.367,6.459 -3.042,10.731c2.464,7.945 7.473,12.763 13.642,15.562Z" style="fill:#d9d9d9;fill-opacity:0.75;fill-rule:nonzero;stroke:#d9d9d9;stroke-width:2.09px;"/><ellipse cx="171.966" cy="116.016" rx="31.394" ry="20.929" style="fill:#ffd35b;"/><circle cx="170.919" cy="154.736" r="32.441" style="fill:#eaac52;"/><ellipse cx="147.164" cy="114.972" rx="6.593" ry="9.418"/><ellipse cx="197.396" cy="114.969" rx="6.593" ry="9.418"/><path d="M162.669,97.714l-2.359,-8.68c-0.562,-2.068 -2.141,-3.707 -4.186,-4.347l-30.204,-9.439" style="fill:none;fill-rule:nonzero;stroke:#000;stroke-width:2.09px;stroke-linecap:round;"/><path d="M182.752,97.759l2.359,-8.68c0.562,-2.068 2.14,-3.707 4.186,-4.347l30.204,-9.438" style="fill:none;fill-rule:nonzero;stroke:#000;stroke-width:2.09px;stroke-linecap:round;"/><path d="M312.721,88.96l0,163.804l-141.855,81.891l-141.846,-81.891l-0,-163.804l141.846,-81.891l141.855,81.891Z" style="fill:none;fill-rule:nonzero;stroke:#ffbb58;stroke-width:12.25px;"/></g></g></svg>