<?xml version="1.0" encoding="UTF-8"?>
<!DOCTYPE svg PUBLIC "-//W3C//DTD SVG 1.1//EN" "http://www.w3.org/Graphics/SVG/1.1/DTD/svg11.dtd">
<!-- Creator: CorelDRAW (Versão OEM) -->
<svg xmlns="http://www.w3.org/2000/svg" xml:space="preserve" width="210mm" height="297mm" version="1.1" style="shape-rendering:geometricPrecision; text-rendering:geometricPrecision; image-rendering:optimizeQuality; fill-rule:evenodd; clip-rule:evenodd"
viewBox="0 0 21000 29700"
 xmlns:xlink="http://www.w3.org/1999/xlink"
 xmlns:xodm="http://www.corel.com/coreldraw/odm/2003">
 <defs>
  <style type="text/css">
   <![CDATA[
    .str0 {stroke:#D9D9D9;stroke-width:51.37;stroke-miterlimit:22.9256}
    .str2 {stroke:#FFBB58;stroke-width:300.62;stroke-miterlimit:22.9256}
    .str1 {stroke:black;stroke-width:51.37;stroke-linecap:round;stroke-miterlimit:22.9256}
    .fil4 {fill:none;fill-rule:nonzero}
    .fil1 {fill:black;fill-rule:nonzero}
    .fil5 {fill:#EAAC52;fill-rule:nonzero}
    .fil0 {fill:#FFBB58;fill-rule:nonzero}
    .fil2 {fill:#FFD35B;fill-rule:nonzero}
    .fil3 {fill:#D9D9D9;fill-rule:nonzero;fill-opacity:0.749020}
   ]]>
  </style>
 </defs>
 <g id="Camada_x0020_1">
  <metadata id="CorelCorpID_0Corel-Layer"/>
  <g id="_2992050304704">
   <g>
    <ellipse class="fil0" cx="10494.19" cy="13835.35" rx="796.2" ry="1386.94"/>
    <ellipse class="fil1" cx="10494.19" cy="14040.82" rx="796.2" ry="667.78"/>
    <ellipse class="fil0" cx="10494.19" cy="13783.99" rx="796.2" ry="667.78"/>
    <ellipse class="fil1" cx="10494.19" cy="13527.13" rx="796.2" ry="667.78"/>
    <ellipse class="fil0" cx="10494.19" cy="13347.35" rx="744.83" ry="590.73"/>
    <circle class="fil2" cx="10494.19" cy="12474.09" r="796.2"/>
    <g>
     <path class="fil3" d="M12906.48 12326c-156.69,117.35 -355.89,186.8 -553.67,226.8 -197.43,39.96 -391.48,50.12 -536.39,50.28 -72.41,0.05 -132.4,-2.36 -174.23,-4.79 -20.9,-1.22 -37.28,-2.46 -48.36,-3.36 -5.56,-0.48 -9.82,-0.85 -12.65,-1.12 -1.4,-0.13 -2.49,-0.23 -3.17,-0.31 -0.35,-0.03 -0.61,-0.08 -0.77,-0.08 -0.08,0 -0.16,-0.03 -0.19,-0.03l-0.02 0.03 -0.69 -0.11 -0.69 -0.02 -1692.54 -76.79 2842.95 -1008.14c122.13,-43.31 251.51,-30.64 345.39,25 93.21,55.2 150.68,151.82 134.48,279.3 -29.5,232.51 -143.66,396.69 -299.45,513.34z"/>
     <path class="fil4 str0" d="M12906.48 12326c-156.69,117.35 -355.89,186.8 -553.67,226.8 -197.43,39.96 -391.48,50.12 -536.39,50.28 -72.41,0.05 -132.4,-2.36 -174.23,-4.79 -20.9,-1.22 -37.28,-2.46 -48.36,-3.36 -5.56,-0.48 -9.82,-0.85 -12.65,-1.12 -1.4,-0.13 -2.49,-0.23 -3.17,-0.31 -0.35,-0.03 -0.61,-0.08 -0.77,-0.08 -0.08,0 -0.16,-0.03 -0.19,-0.03l-0.02 0.03 -0.69 -0.11 -0.69 -0.02 -1692.54 -76.79 2842.95 -1008.14c122.13,-43.31 251.51,-30.64 345.39,25 93.21,55.2 150.68,151.82 134.48,279.3 -29.5,232.51 -143.66,396.69 -299.45,513.34z"/>
    </g>
    <g>
     <path class="fil3" d="M12639.2 12897c-152.48,69.19 -334.6,88.4 -511.36,82.37 -176.48,-6.06 -345.58,-37.15 -470.78,-66.89 -62.54,-14.84 -113.98,-29.32 -149.75,-40.06 -17.86,-5.34 -31.8,-9.76 -41.22,-12.86 -4.74,-1.53 -8.34,-2.75 -10.72,-3.54 -1.22,-0.43 -2.12,-0.72 -2.7,-0.9 -0.29,-0.11 -0.5,-0.19 -0.63,-0.24 -0.08,0 -0.13,-0.03 -0.16,-0.05l-0.03 -0.03 -0.66 -0.21 -0.71 -0.21 -1434.05 -410.66 2587.47 -282.08c112.63,-12.27 222.6,24.27 295.41,90.12 72.18,65.3 107.23,158.46 74.72,263.34 -60.49,195 -183.41,313.19 -334.83,381.9z"/>
     <path class="fil4 str0" d="M12639.2 12897c-152.48,69.19 -334.6,88.4 -511.36,82.37 -176.48,-6.06 -345.58,-37.15 -470.78,-66.89 -62.54,-14.84 -113.98,-29.32 -149.75,-40.06 -17.86,-5.34 -31.8,-9.76 -41.22,-12.86 -4.74,-1.53 -8.34,-2.75 -10.72,-3.54 -1.22,-0.43 -2.12,-0.72 -2.7,-0.9 -0.29,-0.11 -0.5,-0.19 -0.63,-0.24 -0.08,0 -0.13,-0.03 -0.16,-0.05l-0.03 -0.03 -0.66 -0.21 -0.71 -0.21 -1434.05 -410.66 2587.47 -282.08c112.63,-12.27 222.6,24.27 295.41,90.12 72.18,65.3 107.23,158.46 74.72,263.34 -60.49,195 -183.41,313.19 -334.83,381.9z"/>
    </g>
    <g>
     <path class="fil3" d="M8110.96 12326c156.7,117.35 355.91,186.8 553.67,226.8 197.45,39.96 391.5,50.12 536.41,50.28 72.39,0.05 132.4,-2.36 174.23,-4.79 20.9,-1.22 37.25,-2.46 48.37,-3.36 5.55,-0.48 9.79,-0.85 12.62,-1.12 1.43,-0.13 2.48,-0.23 3.17,-0.31 0.35,-0.03 0.61,-0.08 0.77,-0.08 0.08,0 0.16,-0.03 0.21,-0.03l0 0.03 0.69 -0.11 0.69 -0.02 1692.54 -76.79 -2842.95 -1008.14c-122.13,-43.31 -251.5,-30.64 -345.39,25 -93.19,55.2 -150.66,151.82 -134.49,279.3 29.5,232.51 143.67,396.69 299.46,513.34z"/>
     <path class="fil4 str0" d="M8110.96 12326c156.7,117.35 355.91,186.8 553.67,226.8 197.45,39.96 391.5,50.12 536.41,50.28 72.39,0.05 132.4,-2.36 174.23,-4.79 20.9,-1.22 37.25,-2.46 48.37,-3.36 5.55,-0.48 9.79,-0.85 12.62,-1.12 1.43,-0.13 2.48,-0.23 3.17,-0.31 0.35,-0.03 0.61,-0.08 0.77,-0.08 0.08,0 0.16,-0.03 0.21,-0.03l0 0.03 0.69 -0.11 0.69 -0.02 1692.54 -76.79 -2842.95 -1008.14c-122.13,-43.31 -251.5,-30.64 -345.39,25 -93.19,55.2 -150.66,151.82 -134.49,279.3 29.5,232.51 143.67,396.69 299.46,513.34z"/>
    </g>
    <g>
     <path class="fil3" d="M8306.36 12897c152.48,69.19 334.57,88.4 511.35,82.37 176.48,-6.06 345.58,-37.15 470.78,-66.89 62.54,-14.84 113.98,-29.32 149.72,-40.06 17.89,-5.34 31.83,-9.76 41.25,-12.86 4.74,-1.53 8.34,-2.75 10.72,-3.54 1.19,-0.43 2.12,-0.72 2.7,-0.9 0.29,-0.11 0.5,-0.19 0.63,-0.24 0.08,0 0.13,-0.03 0.16,-0.05l0.03 -0.03 0.66 -0.21 0.71 -0.21 1434.05 -410.66 -2587.46 -282.08c-112.64,-12.27 -222.61,24.27 -295.41,90.12 -72.19,65.3 -107.23,158.46 -74.72,263.34 60.46,195 183.41,313.19 334.83,381.9z"/>
     <path class="fil4 str0" d="M8306.36 12897c152.48,69.19 334.57,88.4 511.35,82.37 176.48,-6.06 345.58,-37.15 470.78,-66.89 62.54,-14.84 113.98,-29.32 149.72,-40.06 17.89,-5.34 31.83,-9.76 41.25,-12.86 4.74,-1.53 8.34,-2.75 10.72,-3.54 1.19,-0.43 2.12,-0.72 2.7,-0.9 0.29,-0.11 0.5,-0.19 0.63,-0.24 0.08,0 0.13,-0.03 0.16,-0.05l0.03 -0.03 0.66 -0.21 0.71 -0.21 1434.05 -410.66 -2587.46 -282.08c-112.64,-12.27 -222.61,24.27 -295.41,90.12 -72.19,65.3 -107.23,158.46 -74.72,263.34 60.46,195 183.41,313.19 334.83,381.9z"/>
    </g>
    <ellipse class="fil2" cx="10519.86" cy="11215.57" rx="770.52" ry="513.68"/>
    <circle class="fil5" cx="10494.19" cy="12165.88" r="796.2"/>
    <ellipse class="fil1" cx="9911.16" cy="11189.91" rx="161.81" ry="231.15"/>
    <ellipse class="fil1" cx="11143.98" cy="11189.88" rx="161.81" ry="231.15"/>
    <path class="fil4 str1" d="M10291.71 10766.39l-57.89 -213.05c-13.81,-50.76 -52.55,-90.98 -102.77,-106.67l-741.28 -231.66"/>
    <path class="fil4 str1" d="M10784.6 10767.5l57.92 -213.04c13.78,-50.77 52.52,-90.99 102.73,-106.68l741.29 -231.65"/>
    <polygon class="fil4 str2" points="13974.36,10551.74 13974.36,14571.84 10492.87,16581.85 7011.38,14571.84 7011.38,10551.74 10492.87,8541.71 "/>
   </g>
   <g>
    <path class="fil0" d="M8114.27 21159.36l0 -2755.89c0,-289.92 235.02,-524.94 524.93,-524.94l215.39 0 0 1281.58 979.99 0 0 -1281.58 740.31 0 0 3280.83 -740.31 0 0 -1281.57 -848.76 0c-72.48,0 -131.23,58.76 -131.23,131.23l0 1150.34 -740.32 0z"/>
    <path class="fil0" d="M10738.93 21159.36l0 -1640.41 0 -1115.48c0,-289.92 235.03,-524.94 524.93,-524.94l1607.61 0 0 717.69 -1258.47 0c-72.49,0 -131.23,58.75 -131.23,131.23l0 432.66 1251.35 0 0 717.68 -1120.12 0c-72.49,0 -131.23,58.76 -131.23,131.23l0 1150.34 -742.84 0z"/>
   </g>
  </g>
 </g>
</svg>
