<svg width="317" height="462" viewBox="0 0 317 462" fill="none" xmlns="http://www.w3.org/2000/svg">
<ellipse cx="158.55" cy="206.634" rx="30.0928" ry="52.4197" fill="#FFBB58"/>
<ellipse cx="158.55" cy="214.4" rx="30.0928" ry="25.2391" fill="black"/>
<ellipse cx="158.55" cy="204.693" rx="30.0928" ry="25.2391" fill="#FFBB58"/>
<ellipse cx="158.55" cy="194.985" rx="30.0928" ry="25.2391" fill="black"/>
<ellipse cx="158.55" cy="188.19" rx="28.1513" ry="22.3269" fill="#FFBB58"/>
<circle cx="158.55" cy="155.185" r="30.0928" fill="#FFD35B"/>
<path d="M249.723 149.588C243.801 154.023 236.272 156.648 228.797 158.16C221.334 159.67 214.001 160.054 208.524 160.06C205.787 160.062 203.52 159.971 201.939 159.879C201.148 159.833 200.53 159.786 200.111 159.752C199.901 159.734 199.74 159.72 199.633 159.71C199.58 159.705 199.539 159.701 199.513 159.698C199.5 159.697 199.49 159.695 199.484 159.695C199.481 159.695 199.478 159.694 199.477 159.694L199.476 159.695L199.45 159.691L199.424 159.69L135.454 156.788L242.904 118.685C247.52 117.048 252.41 117.527 255.958 119.63C259.48 121.716 261.653 125.368 261.041 130.186C259.926 138.974 255.611 145.179 249.723 149.588Z" fill="#D9D9D9" fill-opacity="0.75" stroke="#D9D9D9" stroke-width="1.94147"/>
<path d="M239.621 171.169C233.858 173.784 226.975 174.51 220.294 174.282C213.624 174.053 207.233 172.878 202.5 171.754C200.137 171.193 198.193 170.646 196.841 170.24C196.166 170.038 195.639 169.871 195.282 169.754C195.104 169.696 194.968 169.65 194.878 169.62C194.832 169.604 194.798 169.593 194.776 169.586C194.765 169.582 194.757 169.579 194.752 169.578C194.749 169.577 194.747 169.576 194.746 169.575L194.745 169.574L194.72 169.566L194.693 169.558L140.493 154.037L238.287 143.376C242.544 142.912 246.7 144.293 249.452 146.782C252.18 149.25 253.505 152.771 252.276 156.735C249.99 164.105 245.344 168.572 239.621 171.169Z" fill="#D9D9D9" fill-opacity="0.75" stroke="#D9D9D9" stroke-width="1.94147"/>
<path d="M68.4752 149.588C74.3975 154.023 81.9267 156.648 89.401 158.16C96.8638 159.67 104.198 160.054 109.675 160.06C112.411 160.062 114.679 159.971 116.26 159.879C117.05 159.833 117.668 159.786 118.088 159.752C118.298 159.734 118.458 159.72 118.565 159.71C118.619 159.705 118.659 159.701 118.685 159.698C118.698 159.697 118.708 159.695 118.714 159.695C118.717 159.695 118.72 159.694 118.722 159.694L118.722 159.695L118.748 159.691L118.774 159.69L182.744 156.788L75.2941 118.685C70.6781 117.048 65.7886 117.527 62.2399 119.63C58.7178 121.716 56.5458 125.368 57.1569 130.186C58.2719 138.974 62.5871 145.179 68.4752 149.588Z" fill="#D9D9D9" fill-opacity="0.75" stroke="#D9D9D9" stroke-width="1.94147"/>
<path d="M75.8601 171.169C81.6234 173.784 88.5056 174.51 95.1869 174.282C101.857 174.053 108.248 172.878 112.98 171.754C115.344 171.193 117.288 170.646 118.639 170.24C119.315 170.038 119.842 169.871 120.198 169.754C120.377 169.696 120.513 169.65 120.603 169.62C120.648 169.604 120.683 169.593 120.705 169.586C120.716 169.582 120.724 169.579 120.729 169.578C120.732 169.577 120.734 169.576 120.735 169.575L120.736 169.574L120.761 169.566L120.788 169.558L174.988 154.037L77.1943 143.376C72.937 142.912 68.7808 144.293 66.0294 146.782C63.3008 149.25 61.9764 152.771 63.2053 156.735C65.4905 164.105 70.1372 168.572 75.8601 171.169Z" fill="#D9D9D9" fill-opacity="0.75" stroke="#D9D9D9" stroke-width="1.94147"/>
<ellipse cx="159.52" cy="107.619" rx="29.122" ry="19.4147" fill="#FFD35B"/>
<circle cx="158.55" cy="143.536" r="30.0928" fill="#EAAC52"/>
<ellipse cx="136.514" cy="106.649" rx="6.11563" ry="8.73661" fill="black"/>
<ellipse cx="183.109" cy="106.648" rx="6.11563" ry="8.73661" fill="black"/>
<path d="M150.897 90.6418L148.709 82.5897C148.187 80.6711 146.723 79.151 144.825 78.5579L116.808 69.8025" stroke="black" stroke-width="1.94147" stroke-linecap="round"/>
<path d="M169.526 90.6839L171.715 82.6319C172.236 80.7132 173.7 79.1931 175.598 78.6001L203.615 69.8446" stroke="black" stroke-width="1.94147" stroke-linecap="round"/>
<path d="M290.084 82.5293V234.47L158.5 310.439L26.916 234.47V82.5293L158.5 6.55957L290.084 82.5293Z" stroke="#FFBB58" stroke-width="11.362"/>
<path d="M67.775 462V357.84C67.775 346.883 76.6577 338 87.615 338H95.7555V386.438H132.795V338H160.775V462H132.795V413.563H100.716C97.9762 413.563 95.7555 415.783 95.7555 418.523V462H67.775Z" fill="#FFBB58"/>
<path d="M166.975 462V400V357.84C166.975 346.883 175.858 338 186.815 338H247.575V365.125H200.011C197.271 365.125 195.051 367.346 195.051 370.085V386.438H242.346V413.562H200.011C197.271 413.562 195.051 415.783 195.051 418.522V462H166.975Z" fill="#FFBB58"/>
</svg>
