<?xml version="1.0" encoding="UTF-8" standalone="no"?><!DOCTYPE svg PUBLIC "-//W3C//DTD SVG 1.1//EN" "http://www.w3.org/Graphics/SVG/1.1/DTD/svg11.dtd"><svg width="100%" height="100%" viewBox="0 0 803 221" version="1.1" xmlns="http://www.w3.org/2000/svg" xmlns:xlink="http://www.w3.org/1999/xlink" xml:space="preserve" xmlns:serif="http://www.serif.com/" style="fill-rule:evenodd;clip-rule:evenodd;"><g id="_2992050304704"><g><ellipse cx="99.18" cy="132.163" rx="14.318" ry="24.941" style="fill:#ffbb58;"/><ellipse cx="99.18" cy="135.858" rx="14.318" ry="12.009"/><ellipse cx="99.18" cy="131.239" rx="14.318" ry="12.009" style="fill:#ffbb58;"/><ellipse cx="99.18" cy="126.62" rx="14.318" ry="12.009"/><ellipse cx="99.18" cy="123.387" rx="13.394" ry="10.623" style="fill:#ffbb58;"/><circle cx="99.18" cy="107.684" r="14.318" style="fill:#ffd35b;"/><path d="M142.561,105.02c-2.818,2.11 -6.4,3.36 -9.957,4.08c-3.551,0.718 -7.041,0.901 -9.647,0.904c-1.302,0.001 -2.381,-0.044 -3.133,-0.088c-0.375,-0.022 -0.669,-0.043 -0.868,-0.059c-0.099,-0.008 -0.176,-0.016 -0.227,-0.021c-0.026,-0.002 -0.046,-0.002 -0.059,-0.004c-0.006,-0.001 -0.011,-0.002 -0.014,-0.002l-0.004,-0.002l-0.024,-0.002l-30.433,-1.38l51.121,-18.128c2.196,-0.779 4.524,-0.553 6.212,0.447c1.675,0.992 2.709,2.73 2.419,5.022c-0.531,4.181 -2.584,7.135 -5.386,9.233Z" style="fill:#d9d9d9;fill-opacity:0.75;fill-rule:nonzero;stroke:#d9d9d9;stroke-width:0.92px;"/><path d="M137.754,115.289c-2.742,1.244 -6.019,1.59 -9.197,1.481c-3.173,-0.109 -6.215,-0.67 -8.466,-1.204c-1.124,-0.267 -2.049,-0.527 -2.691,-0.72c-0.321,-0.096 -0.572,-0.176 -0.742,-0.232c-0.085,-0.028 -0.151,-0.047 -0.194,-0.062c-0.021,-0.007 -0.038,-0.015 -0.048,-0.018c-0.004,-0.002 -0.008,-0.002 -0.01,-0.002l-0.004,-0.003l-0.024,-0.007l-25.794,-7.385l46.534,-5.073c2.026,-0.221 4.005,0.437 5.315,1.621c1.298,1.174 1.927,2.851 1.343,4.736c-1.087,3.507 -3.299,5.633 -6.022,6.868Z" style="fill:#d9d9d9;fill-opacity:0.75;fill-rule:nonzero;stroke:#d9d9d9;stroke-width:0.92px;"/><path d="M56.322,105.02c2.818,2.11 6.4,3.36 9.957,4.08c3.551,0.718 7.041,0.901 9.647,0.904c1.302,0.001 2.381,-0.044 3.133,-0.088c0.375,-0.022 0.669,-0.043 0.868,-0.059c0.099,-0.008 0.176,-0.016 0.227,-0.021c0.026,-0.002 0.046,-0.002 0.059,-0.004c0.006,-0.001 0.012,-0.002 0.014,-0.002l0.004,-0.002l0.024,-0.002l30.433,-1.38l-51.121,-18.128c-2.196,-0.779 -4.524,-0.553 -6.212,0.447c-1.675,0.993 -2.709,2.731 -2.419,5.022c0.531,4.181 2.584,7.135 5.386,9.233Z" style="fill:#d9d9d9;fill-opacity:0.75;fill-rule:nonzero;stroke:#d9d9d9;stroke-width:0.92px;"/><path d="M59.836,115.289c2.742,1.244 6.019,1.59 9.198,1.481c3.173,-0.109 6.215,-0.67 8.466,-1.204c1.124,-0.267 2.048,-0.527 2.691,-0.72c0.321,-0.096 0.572,-0.176 0.742,-0.232c0.085,-0.028 0.151,-0.047 0.194,-0.062c0.021,-0.007 0.038,-0.015 0.048,-0.018c0.004,-0.001 0.008,-0.001 0.01,-0.002l0.003,-0.003l0.024,-0.007l25.794,-7.385l-46.534,-5.073c-2.026,-0.221 -4.005,0.437 -5.315,1.621c-1.298,1.174 -1.927,2.851 -1.343,4.736c1.087,3.507 3.298,5.633 6.021,6.868Z" style="fill:#d9d9d9;fill-opacity:0.75;fill-rule:nonzero;stroke:#d9d9d9;stroke-width:0.92px;"/><ellipse cx="99.642" cy="85.052" rx="13.856" ry="9.237" style="fill:#ffd35b;"/><circle cx="99.18" cy="102.141" r="14.318" style="fill:#eaac52;"/><ellipse cx="88.696" cy="84.591" rx="2.91" ry="4.157"/><ellipse cx="110.866" cy="84.59" rx="2.91" ry="4.157"/><path d="M95.539,76.974l-1.041,-3.831c-0.248,-0.913 -0.945,-1.636 -1.847,-1.918l-13.331,-4.166" style="fill:none;fill-rule:nonzero;stroke:#000;stroke-width:0.92px;stroke-linecap:round;"/><path d="M104.403,76.994l1.041,-3.831c0.248,-0.913 0.945,-1.636 1.848,-1.918l13.331,-4.166" style="fill:none;fill-rule:nonzero;stroke:#000;stroke-width:0.92px;stroke-linecap:round;"/><path d="M161.766,73.11l0,72.297l-62.609,36.144l-62.606,-36.144l0,-72.297l62.606,-36.144l62.609,36.144Z" style="fill:none;fill-rule:nonzero;stroke:#ffbb58;stroke-width:5.41px;"/><path d="M203.129,159.137l0,-93.871c0,-9.875 8.005,-17.88 17.88,-17.88l7.336,0l0,43.653l33.38,0l0,-43.653l25.217,0l0,111.752l-25.217,0l0,-43.653l-28.91,0c-2.469,0 -4.47,2.001 -4.47,4.47l0,39.183l-25.217,0Z" style="fill:#ffbb58;fill-rule:nonzero;"/><path d="M474.895,173.164c-1.642,0 -3.161,-0.133 -4.559,-0.399c-1.374,-0.244 -2.474,-0.532 -3.293,-0.865l2.796,-9.383c1.75,0.51 3.314,0.754 4.691,0.732c1.374,-0.022 2.582,-0.455 3.625,-1.298c1.066,-0.821 1.963,-2.196 2.698,-4.126l1.029,-2.762l-18.531,-52.172l12.777,0l11.779,38.596l0.531,0l11.812,-38.596l12.807,0l-20.46,57.296c-0.954,2.706 -2.22,5.024 -3.794,6.954c-1.574,1.952 -3.503,3.438 -5.788,4.459c-2.264,1.042 -4.969,1.564 -8.12,1.564Z" style="fill:#ffbb58;fill-rule:nonzero;"/><path d="M435.958,154.997c-5.124,0 -9.551,-1.065 -13.278,-3.194c-3.703,-2.152 -6.553,-5.19 -8.55,-9.117c-1.997,-3.949 -2.995,-8.596 -2.995,-13.941c0,-5.257 0.998,-9.871 2.995,-13.841c2.017,-3.993 4.837,-7.098 8.451,-9.316c3.615,-2.241 7.863,-3.361 12.743,-3.361c3.151,0 6.123,0.51 8.919,1.531c2.816,0.998 5.3,2.551 7.453,4.658c2.173,2.107 3.879,4.791 5.121,8.052c1.242,3.239 1.865,7.098 1.865,11.579l0,3.693l-41.892,0l0,-8.118l30.347,0c-0.024,-2.307 -0.521,-4.359 -1.499,-6.155c-0.975,-1.819 -2.339,-3.25 -4.092,-4.292c-1.73,-1.042 -3.747,-1.564 -6.055,-1.564c-2.461,0 -4.623,0.599 -6.488,1.797c-1.862,1.176 -3.317,2.728 -4.359,4.658c-1.019,1.908 -1.54,4.004 -1.564,6.289l0,7.087c0,2.972 0.545,5.523 1.631,7.653c1.086,2.107 2.606,3.726 4.559,4.858c1.953,1.109 4.238,1.664 6.854,1.664c1.753,0 3.337,-0.244 4.759,-0.732c1.418,-0.51 2.65,-1.253 3.693,-2.229c1.042,-0.976 1.831,-2.185 2.362,-3.627l11.247,1.265c-0.711,2.972 -2.065,5.567 -4.062,7.786c-1.973,2.196 -4.502,3.904 -7.585,5.124c-3.083,1.198 -6.61,1.797 -10.58,1.797Z" style="fill:#ffbb58;fill-rule:nonzero;"/><path d="M368.283,124.053l0,29.945l-12.046,0l0,-51.107l11.515,0l0,8.684l0.599,0c1.174,-2.862 3.05,-5.135 5.622,-6.821c2.596,-1.686 5.801,-2.529 9.616,-2.529c3.527,0 6.6,0.754 9.216,2.263c2.64,1.508 4.681,3.693 6.123,6.555c1.462,2.861 2.183,6.333 2.163,10.414l0,32.541l-12.046,0l0,-30.677c0,-3.416 -0.887,-6.089 -2.66,-8.019c-1.753,-1.93 -4.183,-2.895 -7.287,-2.895c-2.109,0 -3.984,0.466 -5.625,1.398c-1.618,0.909 -2.894,2.229 -3.825,3.959c-0.91,1.73 -1.364,3.826 -1.364,6.289Z" style="fill:#ffbb58;fill-rule:nonzero;"/><path d="M321.525,154.997c-4.991,0 -9.317,-1.098 -12.976,-3.294c-3.66,-2.196 -6.5,-5.268 -8.518,-9.216c-1.997,-3.949 -2.995,-8.562 -2.995,-13.841c0,-5.279 0.998,-9.904 2.995,-13.875c2.018,-3.971 4.858,-7.054 8.518,-9.25c3.66,-2.196 7.985,-3.294 12.976,-3.294c4.991,0 9.316,1.098 12.976,3.294c3.66,2.196 6.488,5.279 8.485,9.25c2.017,3.971 3.029,8.595 3.029,13.875c0,5.279 -1.012,9.893 -3.029,13.841c-1.997,3.948 -4.825,7.02 -8.485,9.216c-3.66,2.196 -7.986,3.294 -12.976,3.294Zm0.066,-9.649c2.706,0 4.969,-0.743 6.788,-2.229c1.819,-1.509 3.172,-3.527 4.06,-6.056c0.909,-2.529 1.364,-5.346 1.364,-8.451c0,-3.128 -0.455,-5.956 -1.364,-8.485c-0.887,-2.551 -2.241,-4.58 -4.06,-6.089c-1.819,-1.508 -4.081,-2.263 -6.788,-2.263c-2.773,0 -5.08,0.754 -6.921,2.263c-1.819,1.509 -3.183,3.538 -4.093,6.089c-0.887,2.529 -1.331,5.357 -1.331,8.485c0,3.105 0.444,5.922 1.331,8.451c0.909,2.529 2.274,4.547 4.093,6.056c1.841,1.486 4.148,2.229 6.921,2.229Z" style="fill:#ffbb58;fill-rule:nonzero;"/><path d="M525.536,159.137l0,-93.871c0,-9.875 8.008,-17.88 17.881,-17.88l54.76,0l0,24.446l-42.866,0c-2.471,0 -4.471,2.001 -4.471,4.47l0,14.737l42.623,0l0,24.446l-38.152,0c-2.471,0 -4.471,2.001 -4.471,4.47l0,39.183l-25.304,0Z" style="fill:#ffbb58;fill-rule:nonzero;"/><path d="M702.644,158.644l-15.139,-53.58l12.872,0l9.416,37.673l0.491,0l9.626,-37.673l12.733,0l9.626,37.464l0.525,0l9.277,-37.464l12.909,0l-15.173,53.58l-13.153,0l-10.046,-36.208l-0.731,0l-10.049,36.208l-13.183,0Z" style="fill:#ffbb58;fill-rule:nonzero;"/><path d="M656.728,159.691c-5.233,0 -9.765,-1.151 -13.603,-3.453c-3.838,-2.302 -6.813,-5.523 -8.929,-9.662c-2.095,-4.139 -3.141,-8.976 -3.141,-14.511c0,-5.535 1.046,-10.383 3.141,-14.546c2.115,-4.162 5.09,-7.395 8.929,-9.697c3.838,-2.302 8.37,-3.453 13.603,-3.453c5.233,0 9.768,1.151 13.606,3.453c3.835,2.302 6.8,5.535 8.895,9.697c2.115,4.163 3.175,9.012 3.175,14.546c0,5.535 -1.059,10.372 -3.175,14.511c-2.095,4.139 -5.06,7.36 -8.895,9.662c-3.838,2.302 -8.374,3.453 -13.606,3.453Zm0.071,-10.116c2.836,0 5.209,-0.779 7.115,-2.337c1.909,-1.581 3.327,-3.698 4.258,-6.349c0.951,-2.651 1.428,-5.605 1.428,-8.86c0,-3.279 -0.477,-6.244 -1.428,-8.895c-0.931,-2.674 -2.349,-4.802 -4.258,-6.383c-1.906,-1.581 -4.278,-2.372 -7.115,-2.372c-2.907,0 -5.324,0.791 -7.257,2.372c-1.906,1.581 -3.337,3.709 -4.288,6.383c-0.931,2.651 -1.398,5.616 -1.398,8.895c0,3.256 0.467,6.209 1.398,8.86c0.951,2.651 2.383,4.767 4.288,6.349c1.933,1.558 4.349,2.337 7.257,2.337Z" style="fill:#ffbb58;fill-rule:nonzero;"/><rect x="607.746" y="87.205" width="12.625" height="71.44" style="fill:#ffbb58;fill-rule:nonzero;"/></g></g></svg>